<svg xmlns="http://www.w3.org/2000/svg" xmlns:xlink="http://www.w3.org/1999/xlink" viewBox="0 0 203.1 30.35"><defs><style>.cls-1,.cls-4{fill:none;}.cls-2{clip-path:url(#clip-path);}.cls-3{fill:#1d1d1b;}.cls-4{stroke:#9c9b9b;}.cls-5,.cls-6{fill:#00597d;}.cls-5{stroke:#00597d;stroke-width:3px;}</style><clipPath id="clip-path"><rect class="cls-1" width="203.1" height="30.35"/></clipPath></defs><g id="Livello_2" data-name="Livello 2"><g id="Livello_2-2" data-name="Livello 2"><g class="cls-2"><path class="cls-3" d="M146,15.56h3.13v-13H146ZM139.47,2.92h16.08V.31H139.47Zm-6.14,8.62a3.62,3.62,0,0,1-1.93,1.28,10.51,10.51,0,0,1-2.75.34,11,11,0,0,1-2.82-.34,3.57,3.57,0,0,1-1.94-1.28,4.39,4.39,0,0,1-.71-2.72V.31H120V9.15a7.34,7.34,0,0,0,.44,2.64,5.43,5.43,0,0,0,1.21,1.91A6.18,6.18,0,0,0,123.54,15a10.07,10.07,0,0,0,2.37.7,17.21,17.21,0,0,0,2.74.21,16.08,16.08,0,0,0,2.65-.21,10.11,10.11,0,0,0,2.34-.7,6.41,6.41,0,0,0,1.87-1.26,5.35,5.35,0,0,0,1.24-1.91,7.34,7.34,0,0,0,.43-2.64V.31h-3.13V8.82a4.39,4.39,0,0,1-.72,2.72m-19.47-1.47a4.21,4.21,0,0,1-1,1.65A4.77,4.77,0,0,1,111,12.8a8.21,8.21,0,0,1-2.68.38,8.93,8.93,0,0,1-3.4-.6,5,5,0,0,1-2.26-1.76,4.91,4.91,0,0,1-.8-2.85,5,5,0,0,1,.8-2.89,5,5,0,0,1,2.26-1.77,8.93,8.93,0,0,1,3.4-.6,8.6,8.6,0,0,1,2.69.38,4.66,4.66,0,0,1,1.85,1.1,3.94,3.94,0,0,1,1,1.7H117a5.76,5.76,0,0,0-1.28-3.17,6.92,6.92,0,0,0-3-2A12.67,12.67,0,0,0,108.3,0a14.27,14.27,0,0,0-3.93.51A8.94,8.94,0,0,0,101.31,2a6.69,6.69,0,0,0-2,2.48A7.88,7.88,0,0,0,98.61,8a7.76,7.76,0,0,0,.71,3.45,6.66,6.66,0,0,0,2,2.47,8.9,8.9,0,0,0,3.06,1.48,14.67,14.67,0,0,0,3.93.5,12.76,12.76,0,0,0,4.43-.69,6.7,6.7,0,0,0,3-2,5.81,5.81,0,0,0,1.3-3.13ZM93.94,9.2V6.72H84.32V2.92H96.06V.31H81.18V15.56H96.09V12.94H84.32V9.2ZM62.13.31l7,8.37.07,0,5.28,6.84h4L71.09,6.77l0-.07L66,.31Zm7.26,6.34-.07.07L61.9,15.56h3.82l5.35-6.74.09-.1L78.38.31H74.56Zm-12,2.55V6.72H47.8V2.92H59.54V.31H48.2L44.66,15.56h14.9V12.94H47.8V9.2Z"/><path class="cls-3" d="M199.48,27.88a1.25,1.25,0,0,0,.17.35,1.29,1.29,0,0,0,.35.35,1.67,1.67,0,0,0,.57.26,2.81,2.81,0,0,0,.82.11,2.72,2.72,0,0,0,.91-.14,1.22,1.22,0,0,0,.6-.38.93.93,0,0,0,.2-.61.9.9,0,0,0-.12-.48.93.93,0,0,0-.34-.31,2.09,2.09,0,0,0-.48-.19c-.17-.05-.36-.1-.56-.14l-.57-.11a1,1,0,0,1-.35-.14.29.29,0,0,1-.12-.24.34.34,0,0,1,.19-.31,1.06,1.06,0,0,1,.56-.12,1,1,0,0,1,.56.13.62.62,0,0,1,.24.4H203a1.27,1.27,0,0,0-.18-.67,1.24,1.24,0,0,0-.55-.45,2.32,2.32,0,0,0-.93-.16,3,3,0,0,0-.69.08,2.17,2.17,0,0,0-.56.21,1.12,1.12,0,0,0-.36.36.87.87,0,0,0-.14.48.79.79,0,0,0,.14.47,1,1,0,0,0,.35.32,2.45,2.45,0,0,0,.52.2,6,6,0,0,0,.61.12c.21,0,.39.07.52.1a.7.7,0,0,1,.3.14.3.3,0,0,1,.1.25A.46.46,0,0,1,202,28a.38.38,0,0,1-.22.15,1.29,1.29,0,0,1-.44.05,1.25,1.25,0,0,1-.68-.16.79.79,0,0,1-.35-.42h-.9a.69.69,0,0,0,0,.27m-4.71,0a1.25,1.25,0,0,0,.17.35,1.45,1.45,0,0,0,.35.35,1.67,1.67,0,0,0,.57.26,3.1,3.1,0,0,0,1.74,0,1.24,1.24,0,0,0,.59-.38.88.88,0,0,0,.2-.61.84.84,0,0,0-.45-.79,2.29,2.29,0,0,0-.48-.19l-.56-.14-.58-.11a1.06,1.06,0,0,1-.35-.14.3.3,0,0,1-.11-.24.33.33,0,0,1,.19-.31,1.3,1.3,0,0,1,1.11,0,.62.62,0,0,1,.24.4h.87a1.19,1.19,0,0,0-.19-.67,1.24,1.24,0,0,0-.55-.45,2.32,2.32,0,0,0-.93-.16,3.1,3.1,0,0,0-.69.08,2.1,2.1,0,0,0-.55.21,1.16,1.16,0,0,0-.37.36.86.86,0,0,0-.13.48.79.79,0,0,0,.13.47,1.12,1.12,0,0,0,.36.32,2.26,2.26,0,0,0,.52.2,5.31,5.31,0,0,0,.6.12c.22,0,.39.07.52.1a.82.82,0,0,1,.31.14.33.33,0,0,1,.09.25.46.46,0,0,1-.06.23.38.38,0,0,1-.22.15,1.29,1.29,0,0,1-.44.05A1.25,1.25,0,0,1,196,28a.77.77,0,0,1-.34-.42h-.91a.69.69,0,0,0,0,.27M192.37,26a.77.77,0,0,1,.36.6h-2.54a1.07,1.07,0,0,1,.43-.59,1.57,1.57,0,0,1,.88-.23,1.47,1.47,0,0,1,.87.22m0,2a1.67,1.67,0,0,1-.78.16,1.8,1.8,0,0,1-.73-.13,1.29,1.29,0,0,1-.48-.37,1.14,1.14,0,0,1-.22-.52h3.57a2.3,2.3,0,0,0-.2-1.2,1.55,1.55,0,0,0-.72-.71,3,3,0,0,0-1.23-.23,3.26,3.26,0,0,0-1.26.23,1.9,1.9,0,0,0-.84.68,1.81,1.81,0,0,0-.3,1.06,1.74,1.74,0,0,0,.31,1.05,2,2,0,0,0,.85.67,3.34,3.34,0,0,0,1.27.23,2.83,2.83,0,0,0,1.08-.18,1.73,1.73,0,0,0,.71-.47,1.37,1.37,0,0,0,.32-.69h-.95a.81.81,0,0,1-.4.42m-5.09-.65a1,1,0,0,1-.46.6,1.59,1.59,0,0,1-.86.21,1.8,1.8,0,0,1-.71-.13,1.05,1.05,0,0,1-.7-1.06,1.12,1.12,0,0,1,.19-.68,1.19,1.19,0,0,1,.51-.4,1.8,1.8,0,0,1,.71-.14,1.59,1.59,0,0,1,.84.21,1.09,1.09,0,0,1,.47.59h.9a1.56,1.56,0,0,0-.32-.83,1.8,1.8,0,0,0-.75-.53,3,3,0,0,0-1.14-.19,3.26,3.26,0,0,0-1.24.23,2,2,0,0,0-.86.66,2,2,0,0,0,0,2.15,1.88,1.88,0,0,0,.86.65,3.26,3.26,0,0,0,1.24.23,3.34,3.34,0,0,0,1.15-.19,1.62,1.62,0,0,0,.75-.54,1.41,1.41,0,0,0,.31-.84Zm-5.63,0a1.05,1.05,0,0,1-.45.6,1.61,1.61,0,0,1-.86.21,1.85,1.85,0,0,1-.72-.13,1.08,1.08,0,0,1-.51-.4,1.09,1.09,0,0,1-.19-.66,1.12,1.12,0,0,1,.19-.68,1.19,1.19,0,0,1,.51-.4,1.85,1.85,0,0,1,.72-.14,1.57,1.57,0,0,1,.83.21,1.16,1.16,0,0,1,.48.59h.89a1.56,1.56,0,0,0-.32-.83,1.68,1.68,0,0,0-.75-.53,2.94,2.94,0,0,0-1.13-.19,3.19,3.19,0,0,0-1.24.23,1.92,1.92,0,0,0-.86.66,2,2,0,0,0,0,2.15,1.83,1.83,0,0,0,.86.65,3.19,3.19,0,0,0,1.24.23,3.24,3.24,0,0,0,1.14-.19,1.7,1.7,0,0,0,.76-.54,1.56,1.56,0,0,0,.31-.84Zm-6.07.17a1.54,1.54,0,0,1-.48.43,1.3,1.3,0,0,1-.7.18,1.44,1.44,0,0,1-.53-.09.63.63,0,0,1-.35-.29,1.25,1.25,0,0,1-.11-.57v-2.1h-1v2.27a1.84,1.84,0,0,0,.14.76,1.24,1.24,0,0,0,.39.48,1.52,1.52,0,0,0,.53.25,2.49,2.49,0,0,0,.61.08,1.59,1.59,0,0,0,.68-.14,1.52,1.52,0,0,0,.48-.33,2.14,2.14,0,0,0,.32-.44,2.41,2.41,0,0,0,.18-.42,2.87,2.87,0,0,0,.08-.31v-.25a1.75,1.75,0,0,1-.25.49m1.18-2.44h-1v3.75h1Zm-10.15,2.53a1.38,1.38,0,0,0,.27.46,1.89,1.89,0,0,0,.49.43,2.42,2.42,0,0,0,.71.31,3.5,3.5,0,0,0,1,.12,3.57,3.57,0,0,0,1.24-.18,1.41,1.41,0,0,0,.7-.51,1.25,1.25,0,0,0,.23-.77,1.28,1.28,0,0,0-.13-.61,1.09,1.09,0,0,0-.39-.41,2.05,2.05,0,0,0-.6-.26,5,5,0,0,0-.78-.17c-.31,0-.56-.09-.77-.13a3.89,3.89,0,0,1-.49-.14.56.56,0,0,1-.25-.18.41.41,0,0,1-.08-.24.51.51,0,0,1,.31-.49,2,2,0,0,1,.8-.14,1.64,1.64,0,0,1,.86.2.73.73,0,0,1,.37.64h1a1.45,1.45,0,0,0-.55-1.24,2.62,2.62,0,0,0-1.62-.44,3.43,3.43,0,0,0-1.19.18,1.57,1.57,0,0,0-.72.5,1.19,1.19,0,0,0-.25.75,1.14,1.14,0,0,0,.16.6,1.43,1.43,0,0,0,.45.43,2.77,2.77,0,0,0,.65.28,6.33,6.33,0,0,0,.78.17c.35.05.64.1.85.15a1.09,1.09,0,0,1,.48.18.35.35,0,0,1,.15.31.56.56,0,0,1-.12.36.76.76,0,0,1-.37.23,1.91,1.91,0,0,1-.63.09,2.24,2.24,0,0,1-.76-.12,1.4,1.4,0,0,1-.55-.32.79.79,0,0,1-.24-.47h-1a1.14,1.14,0,0,0,.06.43M163.37,25a1.34,1.34,0,0,0-.58.12,1.63,1.63,0,0,0-.42.31,2.07,2.07,0,0,0-.28.4,1.93,1.93,0,0,0-.15.39.84.84,0,0,0-.06.26v.42a1.35,1.35,0,0,1,.27-.45,1.51,1.51,0,0,1,.49-.4,1.54,1.54,0,0,1,.73-.16ZM161,28.86h1V25.11h-1Zm-2.53-1.31A1.54,1.54,0,0,1,158,28a1.33,1.33,0,0,1-.7.18,1.4,1.4,0,0,1-.53-.09.63.63,0,0,1-.35-.29,1.25,1.25,0,0,1-.11-.57v-2.1h-1v2.27a1.84,1.84,0,0,0,.14.76,1.24,1.24,0,0,0,.39.48,1.52,1.52,0,0,0,.53.25A2.49,2.49,0,0,0,157,29a1.59,1.59,0,0,0,.68-.14,1.52,1.52,0,0,0,.48-.33,2.14,2.14,0,0,0,.32-.44,2.41,2.41,0,0,0,.18-.42,2.87,2.87,0,0,0,.08-.31v-.25a1.75,1.75,0,0,1-.25.49m1.18-2.44h-1v3.75h1ZM151,28.05a1.1,1.1,0,0,1-.5-.4,1.15,1.15,0,0,1-.18-.65,1.1,1.1,0,0,1,.68-1.08,1.67,1.67,0,0,1,.71-.14,1.61,1.61,0,0,1,.71.14,1.06,1.06,0,0,1,.49.42,1.28,1.28,0,0,1,0,1.31,1.13,1.13,0,0,1-.49.4,1.87,1.87,0,0,1-1.42,0m2,.67a1.88,1.88,0,0,0,.83-.66,1.81,1.81,0,0,0,.3-1.06A1.77,1.77,0,0,0,153,25.26a3.15,3.15,0,0,0-1.24-.23,3.19,3.19,0,0,0-1.24.23,1.86,1.86,0,0,0-.84.66,1.88,1.88,0,0,0-.3,1.08,1.81,1.81,0,0,0,.3,1.06,1.86,1.86,0,0,0,.84.66,3.19,3.19,0,0,0,1.24.23,3.15,3.15,0,0,0,1.24-.23M148.05,24l-1.77,2.92h.6L145.08,24h-1.16l2.14,3.34v1.54h1V27.32L149.21,24Zm-10.32,3.49a.88.88,0,0,1-.38-.3.86.86,0,0,1-.13-.48.85.85,0,0,1,.13-.49.81.81,0,0,1,.39-.31,1.53,1.53,0,0,1,1.14,0,.83.83,0,0,1,.38.31.85.85,0,0,1,.13.49.86.86,0,0,1-.13.48.88.88,0,0,1-.38.3,1.56,1.56,0,0,1-1.15,0m2.81,2.93v-.35a1.26,1.26,0,0,0-.18-.72,1.1,1.1,0,0,0-.55-.37,3.13,3.13,0,0,0-.86-.1h-1.23a.44.44,0,0,1-.25-.07.2.2,0,0,1-.09-.18c0-.12.07-.2.22-.25a3.48,3.48,0,0,1,.71-.08l-.48-.08a3.48,3.48,0,0,0-.73,0,1.18,1.18,0,0,0-.52.21.54.54,0,0,0-.2.46.67.67,0,0,0,.06.28.62.62,0,0,0,.2.23,1.22,1.22,0,0,0,.36.15,3.1,3.1,0,0,0,.57.05h1.17a1.13,1.13,0,0,1,.6.14.52.52,0,0,1,.23.48v.18Zm-1.15-2.3a1.48,1.48,0,0,0,.7-.54,1.37,1.37,0,0,0,.25-.84,1,1,0,0,0-.14-.53,1.5,1.5,0,0,0-.36-.4,2.41,2.41,0,0,0-.48-.3l0,.05a4.68,4.68,0,0,0,.69.22,3.09,3.09,0,0,0,.78.1v-.74H139l-.32-.06-.33,0a2.79,2.79,0,0,0-1.09.2,1.59,1.59,0,0,0-.71.58,1.61,1.61,0,0,0,0,1.74,1.55,1.55,0,0,0,.72.55,3.3,3.3,0,0,0,2.15,0m-6.62-3a1.58,1.58,0,0,0-.55.33,2.21,2.21,0,0,0-.37.45,1.67,1.67,0,0,0-.17.52v.38a.91.91,0,0,1,.22-.48,1.71,1.71,0,0,1,.52-.38,1.6,1.6,0,0,1,.7-.15,1.08,1.08,0,0,1,.75.22.91.91,0,0,1,.23.7v2.12h1V26.57a1.78,1.78,0,0,0-.12-.69,1.2,1.2,0,0,0-.34-.48,1.27,1.27,0,0,0-.51-.28,2.15,2.15,0,0,0-.64-.09,2,2,0,0,0-.71.12m-2,3.71h1V25.11h-1Zm-2.42,0h1V25.11h-1Zm-.07-4.53h1.14v-.86h-1.14Zm-1.05.7a1.34,1.34,0,0,0-.58.12,1.48,1.48,0,0,0-.42.31,1.71,1.71,0,0,0-.28.4,2.93,2.93,0,0,0-.16.39c0,.11,0,.2-.06.26v.42a1.49,1.49,0,0,1,.26-.45,1.53,1.53,0,0,1,1.23-.56Zm-2.42,3.83h1V25.11h-1Zm-4.27-.81a1.08,1.08,0,0,1-.49-.4,1.15,1.15,0,0,1-.18-.65,1.17,1.17,0,0,1,.18-.67,1.12,1.12,0,0,1,.5-.41,1.87,1.87,0,0,1,1.42,0,1.11,1.11,0,0,1,.49.42,1.28,1.28,0,0,1,0,1.31,1.1,1.1,0,0,1-.5.4,1.59,1.59,0,0,1-.7.14,1.65,1.65,0,0,1-.72-.14m2,.67a1.88,1.88,0,0,0,.83-.66,1.81,1.81,0,0,0,.3-1.06,1.77,1.77,0,0,0-1.13-1.74,3.19,3.19,0,0,0-1.24-.23,3.24,3.24,0,0,0-1.25.23,1.86,1.86,0,0,0-.84.66,1.88,1.88,0,0,0-.3,1.08,1.81,1.81,0,0,0,.3,1.06,1.86,1.86,0,0,0,.84.66,3.24,3.24,0,0,0,1.25.23,3.19,3.19,0,0,0,1.24-.23m-5.87.14h1V23.61h-1Zm-2.5,0h1V25.11h-1Zm-.07-4.53h1.13v-.86h-1.13Zm-2.32,3.56c0,.15,0,.3,0,.45s0,.32,0,.52h.91V25.11h-1Zm-2.12.14a1.11,1.11,0,0,1-.47-.41A1.18,1.18,0,0,1,109,27a1.15,1.15,0,0,1,.34-.87,1.38,1.38,0,0,1,1-.33,1.94,1.94,0,0,1,.76.14,1.07,1.07,0,0,1,.67,1.06,1.09,1.09,0,0,1-.67,1,1.64,1.64,0,0,1-.76.16,1.38,1.38,0,0,1-.69-.16m1.22.73a1.47,1.47,0,0,0,.57-.47,1.9,1.9,0,0,0,.33-.63,2.27,2.27,0,0,0,.1-.67,2.66,2.66,0,0,0-.18-1,1.51,1.51,0,0,0-.57-.7,1.94,1.94,0,0,0-1-.26,2.14,2.14,0,0,0-1,.25,1.84,1.84,0,0,0-.73.68,1.91,1.91,0,0,0-.27,1,2,2,0,0,0,.26,1,1.84,1.84,0,0,0,.73.68,2,2,0,0,0,1,.25,1.87,1.87,0,0,0,.85-.18m-6.19.1h1V24.71h-1Zm-2.07-4h5.13V24h-5.13Z"/><line class="cls-4" x1="45.01" y1="20.43" x2="203.1" y2="20.43"/></g><g class="cls-2"><polygon class="cls-5" points="19.72 27.53 28.65 4.43 26.92 4.43 35.82 27.53 42.53 27.53 53.65 0.89 47.72 0.89 38.2 24.48 39.98 24.52 30.92 0.89 24.62 0.89 15.56 24.52 17.33 24.48 7.82 0.89 1.76 0.89 13 27.53 19.72 27.53"/></g><polygon class="cls-6" points="159.63 0.4 153.05 15.65 161.03 15.65 167.4 0.4 159.63 0.4"/><path class="cls-3" d="M182.49.31l-5.21,12.47L172.05.31h-3.47l6.75,15.25h3.91L185.91.31Zm5.71,0V15.56h14.9V12.94H191.34V9.2H201V6.72h-9.62V2.92h11.74V.31Z"/></g></g></svg>